<?xml version="1.0" encoding="UTF-8"?>
<svg width="431px" height="428px" viewBox="0 0 431 428" version="1.1" xmlns="http://www.w3.org/2000/svg" xmlns:xlink="http://www.w3.org/1999/xlink">
    <title>Artboard Copy 8</title>
    <defs>
        <linearGradient x1="50%" y1="21.38254%" x2="80.2893112%" y2="144.228341%" id="linearGradient-1">
            <stop stop-color="#404141" offset="0%"></stop>
            <stop stop-color="#0C0C08" offset="100%"></stop>
        </linearGradient>
        <linearGradient x1="52.8987956%" y1="34.9727698%" x2="-8.25471338%" y2="173.894732%" id="linearGradient-2">
            <stop stop-color="#404141" offset="0%"></stop>
            <stop stop-color="#0C0C08" offset="100%"></stop>
        </linearGradient>
        <linearGradient x1="48.6374339%" y1="-1.23716855%" x2="46.2730812%" y2="121.804482%" id="linearGradient-3">
            <stop stop-color="#C09B6C" offset="0%"></stop>
            <stop stop-color="#E8E8E3" offset="100%"></stop>
        </linearGradient>
        <linearGradient x1="49.3346301%" y1="-1.23716855%" x2="51.1747556%" y2="120.370407%" id="linearGradient-4">
            <stop stop-color="#C09B6C" offset="0%"></stop>
            <stop stop-color="#E8E8E3" offset="100%"></stop>
        </linearGradient>
        <linearGradient x1="50%" y1="0%" x2="50%" y2="100%" id="linearGradient-5">
            <stop stop-color="#404141" offset="0%"></stop>
            <stop stop-color="#0C0C08" offset="100%"></stop>
        </linearGradient>
        <linearGradient x1="46.9016985%" y1="28.1799614%" x2="52.3930209%" y2="88.5182118%" id="linearGradient-6">
            <stop stop-color="#C09B6C" offset="0%"></stop>
            <stop stop-color="#DDCBB2" offset="48.7161276%"></stop>
            <stop stop-color="#C09B6C" offset="100%"></stop>
        </linearGradient>
        <linearGradient x1="50%" y1="0%" x2="50%" y2="100%" id="linearGradient-7">
            <stop stop-color="#404141" offset="0%"></stop>
            <stop stop-color="#0C0C08" offset="100%"></stop>
        </linearGradient>
        <linearGradient x1="47.6889445%" y1="-1.23716855%" x2="50%" y2="145.143804%" id="linearGradient-8">
            <stop stop-color="#C09B6C" offset="0%"></stop>
            <stop stop-color="#E8E8E3" offset="100%"></stop>
        </linearGradient>
        <linearGradient x1="46.9016985%" y1="2.23550518%" x2="50%" y2="136.839095%" id="linearGradient-9">
            <stop stop-color="#C09B6C" offset="0%"></stop>
            <stop stop-color="#E8E8E3" offset="100%"></stop>
        </linearGradient>
    </defs>
    <g id="Artboard-Copy-8" stroke="none" stroke-width="1" fill="none" fill-rule="evenodd">
        <circle id="Oval" fill="#FFFFFF" cx="216" cy="214" r="208"></circle>
        <path d="M249.512182,136.734581 C252.605656,133.595142 254.392717,134.043501 261.886076,127.316264 C269.379435,120.589028 267.794089,120.482892 276.322285,112.665549 C284.850482,104.848205 283.978953,104.51411 293.851968,98.0148333 C303.724984,91.5155571 306.007803,89.8725061 314.475125,87.5500366 C322.942447,85.2275671 327.084317,85.7558891 330.97365,87.5500366 C334.862983,89.344184 336.129439,91.7359553 337.160597,98.0148333 C338.191755,104.293711 338.364519,118.200329 337.160597,133.595142 C335.956675,148.989956 333.977433,149.9295 332.004808,163.943053 C330.032183,177.956606 331.53974,182.639603 328.911334,192.198004 C327.376844,197.778298 324.507877,200.766708 322.724387,203.70928 C321.452965,205.806996 321.446105,208.634652 319.630914,208.941679 C315.269463,209.679388 317.915728,203.322195 310.350494,195.337443 C302.785259,187.352692 301.746023,188.710836 293.851968,181.733207 C285.957914,174.755579 285.670945,175.533476 278.384601,167.082492 C271.098257,158.631508 271.894925,155.514635 264.979549,148.245858 C258.064174,140.97708 246.418709,139.87402 249.512182,136.734581 Z" id="Right-Ear-Copy-6" fill="url(#linearGradient-1)"></path>
        <path d="M104.027292,184 C97.6233958,176.140174 94.4214475,168.21026 94.4214475,160.21026 C94.4214475,148.21026 94.8658214,145.77709 94.4214475,140.21026 C93.4731906,128.331108 94.4214475,119.919585 94.4214475,115.21026 C94.4214475,101.21026 103.244506,74.3278256 104.44874,70.2102603 C105.652974,66.092695 115.820006,68.4970556 122.497866,71.2102603 C129.175727,73.923465 127.98231,72.0743106 135.533346,78.2102603 C143.084383,84.34621 143.355324,86.0572077 149.571556,93.2102603 C155.787788,100.363313 155.587931,99.2102603 161.604307,109.21026 C167.620682,119.21026 172.634328,124.21026 175.642516,129.21026 C178.650704,134.21026 161.894082,137.003841 154.585202,142.21026 C147.276322,147.416679 149.237738,148.251636 140.546993,154.21026 C131.856247,160.168885 132.987464,156.50212 122.497866,164.21026 C115.504801,169.34902 109.347943,175.9456 104.027292,184 Z" id="Left-Ear-Copy-6" fill="url(#linearGradient-2)"></path>
        <path d="M103.576726,175.869321 C101.913298,172.920652 100.672623,165.821986 101.076988,160.484884 C101.175846,159.18008 102.4843,152.230944 103.068314,146.544335 C103.685308,140.536585 103.576726,135.754974 103.576726,133.47578 C103.576726,120.286678 110.111753,94.9613096 111.003701,91.0822391 C111.895648,87.2031687 119.426124,89.4682655 124.372255,92.0243178 C129.318386,94.5803701 128.434451,92.8383212 134.027322,98.6188686 C139.620193,104.399416 139.820873,106.011311 144.425086,112.750049 C149.0293,119.488787 148.881271,118.402521 153.337456,127.823308 C157.793641,137.244095 161.507128,141.954488 163.73522,146.664882 C165.963313,151.375275 153.552086,154.007048 148.138574,158.911905 C142.725062,163.816761 144.177835,164.603355 137.740809,170.216849 C131.303783,175.830342 132.141648,172.375961 124.372255,179.637636 C119.851328,183.863127 115.512176,184.798034 111.033616,183.387214 C107.815592,182.373484 107.436168,182.710741 103.576726,175.869321 Z" id="Left-Ear-Copy-7" fill="url(#linearGradient-3)"></path>
        <path d="M271.328027,154.734581 C273.30924,151.595142 274.453762,152.043501 279.25288,145.316264 C284.051998,138.589028 283.036664,138.482892 288.498542,130.665549 C293.960421,122.848205 293.402251,122.51411 299.725418,116.014833 C306.048585,109.515557 307.510615,107.872506 312.933507,105.550037 C318.356399,103.227567 321.009057,103.755889 323.499978,105.550037 C325.990899,107.344184 326.802,109.735955 327.462405,116.014833 C328.122809,122.293711 328.233456,136.200329 327.462405,151.595142 C326.691354,166.989956 325.423749,167.9295 324.160383,181.943053 C322.897016,195.956606 318.263061,199.231338 316.5797,208.78974 C315.596936,214.370034 319.358978,218.766708 318.216743,221.70928 C317.402461,223.806996 317.398067,226.634652 316.235529,226.941679 C313.44224,227.679388 315.137039,221.322195 310.291889,213.337443 C305.446739,205.352692 304.781161,206.710836 299.725418,199.733207 C294.669675,192.755579 294.485886,193.533476 289.819351,185.082492 C285.152816,176.631508 285.663042,173.514635 281.234093,166.245858 C276.805145,158.97708 269.346813,157.87402 271.328027,154.734581 Z" id="Right-Ear-Copy-7" fill="url(#linearGradient-4)"></path>
        <path d="M171.631079,131.047089 C186.394942,124.944249 192.215394,125.706969 205.562866,125.049478 C212.110481,124.726946 226.520734,126.04908 234.504684,127.048682 C242.488634,128.048284 256.460546,135.045496 264.444496,143.042311 C272.428446,151.039125 272.428446,154.03793 280.412396,163.034346 C288.396346,172.030763 298.376283,180.027577 303.366252,184.025984 C308.35622,188.024391 308.35622,186.025188 313.346189,194.022002 C315.473105,197.43055 319.215834,200.382511 320.332145,205.017622 C321.834818,211.256971 320.332145,219.143186 320.332145,222.010852 C320.332145,227.008861 317.338164,251.998906 313.728967,258.736463 C311.322835,263.228168 304.541951,259.316313 293.386314,247.000897 C294.271813,251.0281 293.939148,255.026507 292.388321,258.996118 C290.06208,264.950535 288.412157,270.344626 282.408383,272.990543 C276.40461,275.63646 272.927443,275.989349 263.446502,275.989349 C253.965562,275.989349 252.468571,275.989349 249.47459,275.989349 C247.478603,275.989349 242.488634,276.65575 234.504684,277.988552 C233.066373,279.683409 230.309072,284.219938 229.616964,289.78325 C229.004005,294.710345 228.3892,311.364807 225.905518,308.716553 C223.421836,306.068298 217.102198,295.452087 209.554841,293.982181 C202.007484,292.512275 200.751518,290.903527 191.590954,291.982977 C185.48391,292.702611 178.958211,296.281265 172.013856,302.718942 C163.932033,280.965067 157.483814,269.722799 152.669198,268.992136 C145.447274,267.896142 144.186251,265.993331 138.697286,265.993331 C133.20832,265.993331 134.621426,270.602126 127.719354,265.993331 C120.817283,261.384535 120.458219,260.985409 117.739417,251.998906 C115.020615,243.012402 115.74343,236.505078 115.74343,234.006073 C115.74343,231.507069 115.74343,230.007666 114.745436,229.008065 C113.747442,228.008463 113.241344,224.848082 109.755467,223.010454 C106.26959,221.172825 110.138245,244.742038 107.144264,243.742436 C104.150283,242.742835 100.158308,212.754781 101.156301,204.757967 C101.770483,199.836599 101.385159,185.6958 103.767505,181.027179 C109.797153,169.211033 127.748702,160.616489 142.689261,151.039125 C157.629819,141.461761 156.867216,137.14993 171.631079,131.047089 Z" id="Main-Face-Copy-3" fill="url(#linearGradient-5)"></path>
        <path d="M157.5,257 C165.508129,257 172,250.590603 172,242.684211 C172,234.777818 170.625776,225 162.617647,225 C154.609518,225 143,234.777818 143,242.684211 C143,250.590603 149.491871,257 157.5,257 Z" id="Oval-Copy-12" fill="#373737"></path>
        <path d="M255.5,259 C263.508129,259 270,252.590603 270,244.684211 C270,236.777818 268.625776,227 260.617647,227 C252.609518,227 241,236.777818 241,244.684211 C241,252.590603 247.491871,259 255.5,259 Z" id="Oval-Copy-20" fill="#373737" transform="translate(255.500000, 243.000000) scale(-1, 1) translate(-255.500000, -243.000000) "></path>
        <path d="M254.5,257 C261.955844,257 268,250.99119 268,243.578947 C268,236.166705 266.72055,227 259.264706,227 C251.808862,227 241,236.166705 241,243.578947 C241,250.99119 247.044156,257 254.5,257 Z" id="Oval-Copy-8" fill="#000000" transform="translate(254.500000, 242.000000) scale(-1, 1) translate(-254.500000, -242.000000) "></path>
        <path d="M158.5,255 C165.955844,255 172,248.99119 172,241.578947 C172,234.166705 170.72055,225 163.264706,225 C155.808862,225 145,234.166705 145,241.578947 C145,248.99119 151.044156,255 158.5,255 Z" id="Oval-Copy-15" fill="#000000"></path>
        <path d="M253,245 C255.761424,245 258,242.596476 258,239.631579 C258,236.666682 257.52613,233 254.764706,233 C252.003282,233 248,236.666682 248,239.631579 C248,242.596476 250.238576,245 253,245 Z" id="Oval-Copy-16" fill="#B8B8B8" transform="translate(253.000000, 239.000000) scale(-1, 1) translate(-253.000000, -239.000000) "></path>
        <path d="M161,243 C163.761424,243 166,240.596476 166,237.631579 C166,234.666682 165.52613,231 162.764706,231 C160.003282,231 156,234.666682 156,237.631579 C156,240.596476 158.238576,243 161,243 Z" id="Oval-Copy-17" fill="#B8B8B8"></path>
        <path d="M116.64778,232.019732 C123.512846,247.136401 119.64996,257.060299 123.652867,262.068412 C127.655774,267.076526 132.659407,265.07328 139.664494,265.07328 C146.669581,265.07328 154.787662,268.153061 163.681934,274.087884 C172.576206,280.022708 171.690026,286.722926 172.688474,293.118715 C173.350055,297.356623 172.488363,303.81812 172.267869,305.929208 C172.155596,307.004144 172.688474,302.776143 172.688474,305.138187 C172.688474,312.1391 171.52354,314.125848 175.690655,321.16415 C179.857769,328.202451 183.2407,327.855967 185.697921,330.178754 C188.155142,332.50154 199.854106,335.390298 206.713182,333.183622 C213.572257,330.976945 210.589341,328.30237 216.720449,322.165772 C222.851556,316.029175 222.304203,313.942189 225.306383,308.934076 C228.308563,303.925963 225.839415,280.400237 237.735709,277.092752 C249.632003,273.785268 257.632523,276.255349 266.756783,275.089507 C275.881043,273.923665 277.380255,275.069131 282.76841,271.083016 C288.156565,267.096901 288.668628,266.38761 290.774223,260.065167 C292.879819,253.742724 291.63996,249.31754 292.775677,247.044072 C293.911394,244.770605 292.775677,239.031091 298.780037,237.027846 C304.112251,236.005701 307.781583,235.671827 309.78803,236.026223 C312.797702,236.557817 314.964806,236.690004 315.792391,247.044072 C316.619975,257.398141 314.841449,259.954992 312.79021,269.079771 C310.738972,278.20455 311.714972,278.968646 306.78585,287.108979 C303.645137,292.295795 291.71233,304.580664 279.345624,315.945435 C272.30368,322.416849 273.341264,320.953548 262.33327,329.968152 C247.123807,342.4234 223.30493,358.013587 212.296936,360.016832 C201.288943,362.020077 187.156489,361.09489 176.270775,356.010341 C165.385062,350.925793 150.251882,332.97302 140.244615,320.953548 C130.237348,308.934076 114.408061,290.400032 110.64342,279.095998 C106.878779,267.791964 106.796226,266.012961 105.639787,256.058676 C104.483347,246.104392 104.953085,240.697609 103.638333,233.021355 C102.78541,228.041518 102.257072,222.171368 105.639787,222.003506 C106.733964,221.949208 111.010185,222.506673 113.6456,225.008374 C115.421807,226.694461 115.676873,229.881824 116.64778,232.019732 Z" id="Jowels-Copy-3" fill="url(#linearGradient-6)"></path>
        <g id="Nose-Copy-3" transform="translate(172.000000, 290.000000)">
            <path d="M1.41421356,8.36647269 C2.41421356,6.66947788 3.41421356,5.82098047 8.41421356,3.27548825 C13.4142136,0.729996023 17.9375031,0.91949506 24.4142136,0.729996023 C30.890924,0.540496987 31.9522759,0.815011713 37.4142136,2.42699084 C42.8761513,4.03896996 43.8332202,5.04922364 47.4142136,7.51797528 C50.9952069,9.98672693 51.4142136,10.0634675 53.4142136,13.4574571 C55.4142136,16.8514468 54.2351496,18.7491309 52.4142136,24.4879234 C50.5932775,30.226716 51.1260521,31.3099868 46.4142136,35.5183897 C41.702375,39.7267927 40.080974,41.121136 36.4142136,42.306369 C32.7474531,43.491602 31.0878764,44.2334542 24.4142136,43.1548664 C17.7405507,42.0762787 16.4206782,42.0779526 11.4142136,39.7608768 C6.40774891,37.443801 1.41421356,28.7304105 0.414213562,24.4879234 C-0.585786438,20.2454364 0.414213562,10.0634675 1.41421356,8.36647269 Z" id="Path-16" fill="url(#linearGradient-7)"></path>
            <path d="M40.4142136,26.0614907 C44.0040644,26.0614907 46.4142136,25.3751992 46.4142136,22.0614907 C46.4142136,18.7477822 43.0040644,16.0614907 39.4142136,16.0614907 C35.8243627,16.0614907 34.4142136,17.7477822 34.4142136,21.0614907 C34.4142136,24.3751992 36.8243627,26.0614907 40.4142136,26.0614907 Z" id="Oval-Copy" fill="#000000" transform="translate(40.414214, 21.061491) scale(-1, 1) translate(-40.414214, -21.061491) "></path>
            <path d="M12.4142136,24.0614907 C16.0040644,24.0614907 18.4142136,23.3751992 18.4142136,20.0614907 C18.4142136,16.7477822 15.0040644,14.0614907 11.4142136,14.0614907 C7.82436269,14.0614907 6.41421356,15.7477822 6.41421356,19.0614907 C6.41421356,22.3751992 8.82436269,24.0614907 12.4142136,24.0614907 Z" id="Oval-Copy-2" fill="#000000"></path>
        </g>
        <path d="M162.454247,208.401837 C170.454247,214.401837 167.354247,220.301837 169.454247,222.401837 C171.554247,224.501837 172.508037,225.133828 176.454247,222.401837 C180.400456,219.669846 180.876452,218.924119 182.454247,213.401837 C184.032041,207.879555 184.454247,205.401837 182.454247,202.401837 C180.454247,199.401837 178.469654,197.740306 174.454247,196.401837 C170.438839,195.063368 171.454247,194.401837 167.454247,194.401837 C163.87419,194.401837 159.752451,196.184961 159.454247,196.401837 C159.287445,196.523147 154.92404,202.754182 162.454247,208.401837 Z" id="Path-11-Copy-3" fill="url(#linearGradient-8)" transform="translate(170.923509, 209.311678) rotate(-30.000000) translate(-170.923509, -209.311678) "></path>
        <path d="M234.826524,225.075039 C240.490394,227.939963 242.492875,219.687511 245.210285,216.48027 C247.927695,213.273028 250.740426,213.564702 252.762111,211.705397 C254.783795,209.846093 255.594046,209.317961 255.594046,206.930525 C255.594046,204.543089 255.858912,204.718914 252.762111,202.155653 C249.66531,199.592392 250.123986,199.382269 245.210285,198.335756 C240.296583,197.289242 237.654537,197.620517 234.826524,198.335756 C231.998511,199.050995 231.928503,200.082174 230.106633,202.155653 C228.284763,204.229133 225.239313,211.58992 227.274698,216.48027 C229.310083,221.370619 229.162655,222.210116 234.826524,225.075039 Z" id="Path-12-Copy-3" fill="url(#linearGradient-9)" transform="translate(241.099697, 211.669358) rotate(19.000000) translate(-241.099697, -211.669358) "></path>
        <path d="M152.090033,257.313294 C152.090033,257.313294 149.280038,254.521947 149.118237,248.642122 C148.980572,243.639353 154.695543,239.474816 153.283268,239.54883 C151.870993,239.622844 147.624783,244.680484 147.624783,247.645381 C147.624783,248.733801 147.709639,250.967 148.300294,252.555366 C149.318607,255.293769 151.198813,257.482881 152.090033,257.313294 Z" id="Oval-Copy-18" fill="#5D5D5D" transform="translate(150.566330, 248.435192) rotate(-42.000000) translate(-150.566330, -248.435192) "></path>
        <path d="M263.465249,258.765436 C263.465249,258.765436 260.655255,255.974088 260.493454,250.094264 C260.355788,245.091494 266.07076,240.926957 264.658485,241.000972 C263.246209,241.074986 259,246.132626 259,249.097523 C259,250.185943 259.084855,252.419142 259.675511,254.007507 C260.693824,256.745911 262.57403,258.935023 263.465249,258.765436 Z" id="Oval-Copy-19" fill="#5D5D5D" transform="translate(261.941546, 249.887333) scale(-1, 1) rotate(-42.000000) translate(-261.941546, -249.887333) "></path>
    </g>
</svg>